<svg xmlns="http://www.w3.org/2000/svg" version="1.1" xmlns:xlink="http://www.w3.org/1999/xlink" xmlns:svgjs="http://svgjs.dev/svgjs" width="330" height="189.09"><g><svg viewBox="0 0 395.52 247.2" height="189.09" width="330" xmlns="http://www.w3.org/2000/svg" version="1.1" xmlns:xlink="http://www.w3.org/1999/xlink" xmlns:svgjs="http://svgjs.com/svgjs" x="0" y="0" viewbox="0 0 330 189.09"><g><svg></svg></g><g><svg viewBox="0 0 395.52 247.2" height="247.2" width="395.52"><g transform="matrix(1,0,0,1,75.54432,88.08939079903148)"><svg viewBox="0 0 244.43135999999998 71.02121840193703" height="71.02121840193703" width="244.43135999999998"><g><svg viewBox="0 0 244.43135999999998 71.02121840193703" height="71.02121840193703" width="244.43135999999998"><g><svg viewBox="0 0 244.43135999999998 71.02121840193703" height="71.02121840193703" width="244.43135999999998"><g id="textblocktransform"><svg viewBox="0 0 244.43135999999998 71.02121840193703" height="71.02121840193703" width="244.43135999999998" id="textblock"><g><svg viewBox="0 0 244.43135999999998 71.02121840193703" height="71.02121840193703" width="244.43135999999998"><g transform="matrix(1,0,0,1,0,0)"><svg width="244.43135999999998" viewBox="1.149999976158142 -35.5 123.88999938964844 36" height="71.02121840193703" data-palette-color="#1e55b3"><path d="M17.4 0L12.8 0Q12.3 0 11.95-0.35 11.6-0.7 11.6-1.2L11.6-1.2 11.6-28.85 2.35-28.85Q1.85-28.85 1.5-29.2 1.15-29.55 1.15-30.05L1.15-30.05 1.15-33.75Q1.15-34.3 1.5-34.65 1.85-35 2.35-35L2.35-35 27.85-35Q28.4-35 28.75-34.65 29.1-34.3 29.1-33.75L29.1-33.75 29.1-30.05Q29.1-29.55 28.75-29.2 28.4-28.85 27.85-28.85L27.85-28.85 18.65-28.85 18.65-1.2Q18.65-0.7 18.3-0.35 17.95 0 17.4 0L17.4 0ZM57.75 0L35.35 0Q34.85 0 34.5-0.35 34.15-0.7 34.15-1.2L34.15-1.2 34.15-33.75Q34.15-34.3 34.5-34.65 34.85-35 35.35-35L35.35-35 57.35-35Q57.9-35 58.25-34.65 58.6-34.3 58.6-33.75L58.6-33.75 58.6-30.45Q58.6-29.95 58.25-29.6 57.9-29.25 57.35-29.25L57.35-29.25 40.9-29.25 40.9-20.4 56.25-20.4Q56.8-20.4 57.15-20.08 57.5-19.75 57.5-19.2L57.5-19.2 57.5-16.1Q57.5-15.55 57.15-15.23 56.8-14.9 56.25-14.9L56.25-14.9 40.9-14.9 40.9-5.75 57.75-5.75Q58.3-5.75 58.65-5.4 59-5.05 59-4.5L59-4.5 59-1.2Q59-0.7 58.65-0.35 58.3 0 57.75 0L57.75 0ZM70.84 0L66.44 0Q65.94 0 65.59-0.35 65.25-0.7 65.25-1.2L65.25-1.2 65.25-33.75Q65.25-34.3 65.59-34.65 65.94-35 66.44-35L66.44-35 70.84-35Q71.39-35 71.75-34.65 72.09-34.3 72.09-33.75L72.09-33.75 72.09-22.05 83.39-34.1Q83.59-34.35 84.07-34.68 84.55-35 85.34-35L85.34-35 90.3-35Q90.69-35 91.02-34.7 91.34-34.4 91.34-33.95L91.34-33.95Q91.34-33.6 91.14-33.35L91.14-33.35 77.39-18.25 92.09-1.7Q92.34-1.4 92.34-1.05L92.34-1.05Q92.34-0.6 92.02-0.3 91.69 0 91.3 0L91.3 0 86.14 0Q85.3 0 84.82-0.38 84.34-0.75 84.19-0.9L84.19-0.9 72.09-14.15 72.09-1.2Q72.09-0.7 71.75-0.35 71.39 0 70.84 0L70.84 0ZM110.29 0.5L110.29 0.5Q105.84 0.5 102.64-0.98 99.44-2.45 97.64-5.53 95.84-8.6 95.69-13.2L95.69-13.2Q95.64-15.35 95.64-17.45 95.64-19.55 95.69-21.75L95.69-21.75Q95.84-26.3 97.69-29.35 99.54-32.4 102.77-33.95 105.99-35.5 110.29-35.5L110.29-35.5Q114.59-35.5 117.84-33.95 121.09-32.4 122.94-29.35 124.79-26.3 124.94-21.75L124.94-21.75Q125.04-19.55 125.04-17.45 125.04-15.35 124.94-13.2L124.94-13.2Q124.79-8.6 122.99-5.53 121.19-2.45 117.97-0.98 114.74 0.5 110.29 0.5ZM110.29-5.25L110.29-5.25Q113.54-5.25 115.59-7.18 117.64-9.1 117.79-13.45L117.79-13.45Q117.89-15.65 117.89-17.53 117.89-19.4 117.79-21.55L117.79-21.55Q117.69-24.45 116.72-26.28 115.74-28.1 114.09-28.93 112.44-29.75 110.29-29.75L110.29-29.75Q108.19-29.75 106.54-28.93 104.89-28.1 103.92-26.28 102.94-24.45 102.84-21.55L102.84-21.55Q102.79-19.4 102.79-17.53 102.79-15.65 102.84-13.45L102.84-13.45Q102.99-9.1 105.04-7.18 107.09-5.25 110.29-5.25Z" opacity="1" transform="matrix(1,0,0,1,0,0)" fill="#1e55b3" class="undefined-text-0" data-fill-palette-color="primary" id="text-0"></path></svg></g></svg></g></svg></g></svg></g></svg></g></svg></g><path d="M206.505 82.089L206.505 25.355 10.014 25.355 10.014 221.845 206.505 221.845 206.505 165.111 200.1 165.111 200.1 215.441 16.419 215.441 16.419 31.759 200.1 31.759 200.1 82.089Z" fill="#1e55b3" stroke="transparent" data-fill-palette-color="primary"></path></svg></g><defs></defs></svg></g></svg>